<svg width="40" height="40" viewBox="0 0 40 40" fill="none" xmlns="http://www.w3.org/2000/svg">
<g clip-path="url(#clip0_1_77)">
<path d="M20 23.912C22.1605 23.912 23.912 22.1605 23.912 20C23.912 17.8395 22.1605 16.088 20 16.088C17.8395 16.088 16.088 17.8395 16.088 20C16.088 22.1605 17.8395 23.912 20 23.912Z" fill="#9A9A9A"/>
<path d="M22.012 13.104V13.1H22.204L22.012 13.104Z" fill="#9A9A9A"/>
<path d="M38.136 25.8C37.892 25.76 37.64 25.84 37.464 26.012C36.276 27.2 34.772 27.98 33.148 28.312C33.332 27.68 33.46 27.024 33.46 26.336C33.46 23.612 31.892 21.2 29.576 20.004C31.892 18.808 33.464 16.396 33.464 13.668C33.464 12.952 33.324 12.272 33.128 11.62C34.948 11.888 36.636 12.7 37.944 14.036C38.088 14.184 38.288 14.264 38.492 14.264C38.54 14.264 38.584 14.26 38.632 14.252C38.884 14.204 39.092 14.04 39.196 13.804C39.724 12.596 39.996 11.304 39.996 9.968C39.996 4.668 35.684 0.352001 30.38 0.352001C28.92 0.352001 27.52 0.672001 26.216 1.296C25.992 1.404 25.836 1.612 25.792 1.86C25.752 2.104 25.832 2.356 26.008 2.532C27.196 3.72 27.976 5.224 28.308 6.848C27.676 6.664 27.02 6.536 26.332 6.536C23.608 6.536 21.196 8.104 20 10.416C18.804 8.1 16.392 6.528 13.664 6.528C12.948 6.528 12.268 6.668 11.616 6.864C11.884 5.04 12.696 3.356 14.036 2.048C14.216 1.868 14.3 1.612 14.252 1.364C14.208 1.112 14.04 0.904001 13.804 0.800001C12.596 0.272001 11.304 0.00400058 9.968 0.00400058C4.668 5.83474e-07 0.356002 4.312 0.356002 9.616C0.356002 11.076 0.676002 12.476 1.3 13.78C1.408 14.004 1.616 14.16 1.864 14.204C1.908 14.212 1.948 14.216 1.992 14.216C2.192 14.216 2.388 14.136 2.536 13.992C3.724 12.804 5.228 12.024 6.852 11.692C6.668 12.324 6.54 12.98 6.54 13.668C6.54 16.392 8.108 18.804 10.424 20C8.108 21.196 6.536 23.608 6.536 26.336C6.536 27.052 6.676 27.732 6.872 28.384C5.048 28.116 3.364 27.304 2.052 25.964C1.872 25.784 1.616 25.7 1.368 25.748C1.116 25.796 0.908002 25.96 0.804002 26.196C0.276002 27.404 0.00400162 28.696 0.00400162 30.032C0.00400162 35.332 4.316 39.648 9.62 39.648C11.08 39.648 12.48 39.328 13.784 38.704C14.008 38.596 14.164 38.388 14.208 38.14C14.248 37.896 14.168 37.644 13.992 37.468C12.804 36.28 12.024 34.776 11.692 33.152C12.324 33.336 12.98 33.464 13.668 33.464C16.392 33.464 18.804 31.896 20 29.58C21.196 31.896 23.608 33.468 26.336 33.468C27.052 33.468 27.732 33.328 28.388 33.132C28.12 34.952 27.308 36.64 25.972 37.952C25.792 38.132 25.708 38.388 25.756 38.636C25.804 38.888 25.968 39.096 26.204 39.2C27.412 39.728 28.704 40 30.04 40C35.34 40 39.656 35.688 39.656 30.384C39.656 28.924 39.336 27.524 38.712 26.22C38.604 25.996 38.396 25.84 38.148 25.796L38.136 25.8ZM27.848 2.292C28.66 2.024 29.508 1.888 30.384 1.888C34.84 1.888 38.468 5.512 38.468 9.972C38.468 10.724 38.368 11.46 38.168 12.168C36.536 10.856 34.552 10.092 32.444 9.98C32.416 9.932 32.372 9.896 32.34 9.848C32.076 9.436 31.78 9.048 31.44 8.7C31.356 8.616 31.268 8.544 31.18 8.464C30.856 8.164 30.508 7.892 30.132 7.652C30.08 7.62 30.04 7.572 29.988 7.54C29.796 5.616 29.048 3.796 27.848 2.292ZM26.332 8.068C27.328 8.068 28.248 8.352 29.06 8.808C29.484 9.044 29.876 9.32 30.22 9.652C30.252 9.684 30.288 9.716 30.324 9.748C30.664 10.092 30.94 10.492 31.184 10.92C31.648 11.736 31.936 12.668 31.936 13.672C31.936 16.448 29.872 18.82 27.132 19.216C26.764 15.88 24.132 13.248 20.788 12.876C21.176 10.136 23.556 8.072 26.332 8.072V8.068ZM25.676 20C25.676 23.132 23.128 25.68 19.996 25.68C16.864 25.68 14.316 23.132 14.316 20C14.316 16.868 16.864 14.32 19.996 14.32C23.128 14.32 25.676 16.868 25.676 20ZM7.54 10.008C5.616 10.2 3.796 10.948 2.292 12.148C2.024 11.336 1.888 10.488 1.888 9.612C1.888 5.16 5.512 1.532 9.968 1.532C10.72 1.532 11.456 1.632 12.164 1.832C10.852 3.46 10.088 5.448 9.976 7.556C9.928 7.584 9.892 7.628 9.844 7.66C9.432 7.924 9.048 8.22 8.7 8.56C8.616 8.644 8.544 8.732 8.464 8.82C8.164 9.144 7.888 9.492 7.652 9.868C7.62 9.92 7.572 9.96 7.54 10.012V10.008ZM8.064 13.664C8.064 12.668 8.348 11.744 8.804 10.936C9.04 10.512 9.316 10.12 9.648 9.776C9.68 9.744 9.708 9.708 9.74 9.676C10.084 9.336 10.484 9.056 10.912 8.816C11.728 8.352 12.66 8.064 13.664 8.064C16.44 8.064 18.816 10.128 19.208 12.872C15.864 13.24 13.236 15.868 12.864 19.208C10.124 18.82 8.06 16.44 8.06 13.668L8.064 13.664ZM10.008 32.456C10.2 34.38 10.948 36.2 12.148 37.704C11.336 37.972 10.488 38.108 9.612 38.108C5.156 38.108 1.528 34.484 1.528 30.024C1.528 29.272 1.628 28.536 1.828 27.828C3.456 29.14 5.444 29.904 7.552 30.016C7.58 30.064 7.624 30.1 7.656 30.148C7.92 30.56 8.216 30.944 8.552 31.288C8.636 31.372 8.728 31.448 8.816 31.528C9.14 31.828 9.488 32.1 9.864 32.34C9.916 32.372 9.952 32.42 10.004 32.448L10.008 32.456ZM13.664 31.928C12.668 31.928 11.748 31.644 10.936 31.188C10.512 30.952 10.116 30.676 9.776 30.344C9.744 30.312 9.708 30.284 9.676 30.252C9.336 29.908 9.056 29.508 8.816 29.08C8.352 28.264 8.064 27.336 8.064 26.332C8.064 23.556 10.132 21.176 12.876 20.788C13.244 24.128 15.872 26.76 19.212 27.132C18.82 29.872 16.444 31.932 13.672 31.932L13.664 31.928ZM26.332 31.932C23.56 31.932 21.184 29.868 20.788 27.128C24.124 26.76 26.756 24.128 27.128 20.784C29.868 21.172 31.932 23.552 31.932 26.328C31.932 27.324 31.648 28.244 31.192 29.056C30.956 29.476 30.68 29.872 30.348 30.216C30.316 30.252 30.284 30.288 30.248 30.32C29.904 30.656 29.504 30.936 29.08 31.18C28.264 31.644 27.332 31.932 26.328 31.932H26.332ZM30.032 38.46C29.28 38.46 28.544 38.36 27.836 38.16C29.148 36.528 29.912 34.544 30.024 32.436C30.072 32.408 30.108 32.364 30.156 32.332C30.564 32.072 30.948 31.776 31.292 31.44C31.38 31.356 31.456 31.26 31.54 31.168C31.84 30.844 32.108 30.5 32.344 30.128C32.376 30.076 32.424 30.036 32.456 29.984C34.38 29.792 36.2 29.044 37.704 27.844C37.972 28.656 38.108 29.504 38.108 30.38C38.108 34.836 34.484 38.464 30.024 38.464L30.032 38.46Z" fill="#9A9A9A"/>
</g>
<defs>
<clipPath id="clip0_1_77">
<rect width="40" height="40" fill="white"/>
</clipPath>
</defs>
</svg>
